<?xml version="1.0" standalone="no"?>
<!DOCTYPE svg PUBLIC "-//W3C//DTD SVG 20010904//EN"
 "http://www.w3.org/TR/2001/REC-SVG-20010904/DTD/svg10.dtd">
<svg version="1.0" xmlns="http://www.w3.org/2000/svg"
 width="260.000000pt" height="260.000000pt" viewBox="0 0 260.000000 260.000000"
 preserveAspectRatio="xMidYMid meet">
<metadata>
Created by potrace 1.14, written by Peter Selinger 2001-2017
</metadata>
<g transform="translate(0.000000,260.000000) scale(0.100000,-0.100000)"
fill="#000000" stroke="none">
<path d="M339 2261 l-29 -30 2 -935 3 -936 27 -27 c22 -22 39 -27 88 -31 l60
-4 0 -50 c0 -59 19 -100 55 -116 19 -9 253 -12 941 -12 994 0 956 -2 982 55
17 38 17 1842 0 1880 -16 36 -57 55 -116 55 l-50 0 -4 60 c-4 49 -9 66 -31 88
l-27 27 -936 3 -935 2 -30 -29z m1492 -1161 c126 -327 229 -598 229 -602 0 -5
-53 -8 -119 -8 l-119 0 -48 130 -49 130 -241 0 -242 0 -50 -128 -49 -127 -123
-3 c-114 -2 -122 -1 -116 15 4 10 109 283 233 606 l226 588 120 -3 120 -3 228
-595z"/>
<path d="M1470 1344 c-6 -16 -40 -105 -76 -197 -36 -93 -63 -171 -61 -173 2
-3 72 -3 155 -2 l150 3 -74 195 c-42 107 -77 196 -79 199 -3 2 -9 -9 -15 -25z"/>
</g>
</svg>
